<?xml version="1.0" encoding="utf-8"?><svg xmlns="http://www.w3.org/2000/svg" xmlns:xlink="http://www.w3.org/1999/xlink"><symbol viewBox="0 0 512 512" id="arrow-right" xmlns="http://www.w3.org/2000/svg"><path d="M64 256c0 8.8 7.2 16 16 16h319.2L277 388.4c-6.4 6.1-6.7 16.2-.6 22.6 6.1 6.4 16.2 6.6 22.6.6l139.6-133c6-6 9.4-14.1 9.4-22.6 0-8.5-3.3-16.6-9.7-22.9L299 100.4c-6.4-6.1-16.5-5.8-22.6.6-6.1 6.4-5.8 16.5.6 22.6L399.7 240H80c-8.8 0-16 7.2-16 16z"/></symbol><symbol viewBox="0 0 344.96 344.96" id="check" xmlns="http://www.w3.org/2000/svg"><g data-name="Слой 2"><path d="M321.85 86.24l-40-23.11-23.1-40H212.5L172.48 0l-40 23.11H86.24l-23.11 40-40 23.1v46.21L0 172.48l23.11 40v46.21l40 23.11 23.11 40h46.21l40 23.1 40-23.11h46.21l23.11-40 40-23.11V212.5l23.11-40-23.11-40V86.24zM156.91 243.07a16.79 16.79 0 01-23.34 0l-50.45-50.44a16.19 16.19 0 010-22.89l13.35-13.35a16.19 16.19 0 0122.89 0l25.87 25.87 80.34-80.35a16.19 16.19 0 0122.89 0l13.35 13.35a16.19 16.19 0 010 22.89z" data-name="Capa 1"/></g></symbol><symbol viewBox="0 0 682 682" id="comment" xmlns="http://www.w3.org/2000/svg"><path d="M572.5 46H108.9C60.4 46 21 85.4 21 133.9v283.7c0 48.4 39.3 87.7 87.6 87.9v128.7l185-128.7h278.9c48.5 0 87.9-39.4 87.9-87.9V133.9c0-48.5-39.5-87.9-87.9-87.9zm50.4 371.6c0 27.8-22.6 50.4-50.4 50.4H281.8L146 562.5V468h-37.2c-27.8 0-50.4-22.6-50.4-50.4V133.9c0-27.8 22.6-50.4 50.4-50.4h463.6c27.8 0 50.4 22.6 50.4 50.4v283.7z"/><path d="M192.1 178.3h297.1v37.5H192.1v-37.5zm0 80h297.1v37.5H192.1v-37.5zm0 79.9h297.1v37.5H192.1v-37.5z"/></symbol><symbol viewBox="0 0 60 60" id="flag" xmlns="http://www.w3.org/2000/svg"><path d="M53.7 35.3L44.2 20l9.7-15.5c.2-.3.2-.7 0-1-.2-.3-.5-.5-.9-.5H8V1c0-.6-.4-1-1-1S6 .4 6 1v58c0 .6.4 1 1 1s1-.4 1-1V37h45c.6 0 1-.4 1-1 0-.3-.1-.5-.3-.7z"/></symbol><symbol viewBox="0 0 512 512" id="instagram" xmlns="http://www.w3.org/2000/svg"><path d="M256 49.5c67.3 0 75.2.3 101.8 1.5 24.6 1.1 37.9 5.2 46.8 8.7 10.9 4 20.8 10.5 29 18.8 8.4 8.1 14.8 18 18.8 29 3.5 8.9 7.6 22.2 8.7 46.8 1.2 26.6 1.5 34.5 1.5 101.8s-.3 75.2-1.5 101.8c-1.1 24.6-5.2 37.9-8.7 46.8-8.5 22-25.8 39.3-47.8 47.8-8.9 3.5-22.2 7.6-46.8 8.7-26.6 1.2-34.5 1.5-101.8 1.5s-75.2-.3-101.8-1.5c-24.6-1.1-37.9-5.2-46.8-8.7-10.9-4-20.8-10.5-29-18.8-8.4-8.1-14.8-18-18.8-29-3.5-8.9-7.6-22.2-8.7-46.8-1.2-26.6-1.5-34.5-1.5-101.8s.3-75.2 1.5-101.8c1.1-24.6 5.2-37.9 8.7-46.8 4-10.9 10.5-20.8 18.8-29 8.1-8.4 18-14.8 29-18.8 8.9-3.5 22.2-7.6 46.8-8.7 26.6-1.3 34.5-1.5 101.8-1.5m0-45.4c-68.4 0-77 .3-103.9 1.5C125.3 6.8 107 11.1 91 17.3c-16.8 6.3-32 16.2-44.6 29.1C33.5 58.9 23.6 74.2 17.3 91c-6.2 16-10.5 34.3-11.7 61.2C4.4 179 4.1 187.6 4.1 256s.3 77 1.5 103.9c1.2 26.8 5.5 45.1 11.7 61.2 6.3 16.8 16.2 32 29.1 44.6 12.6 12.8 27.8 22.7 44.6 29 16 6.2 34.3 10.5 61.2 11.7 26.9 1.2 35.4 1.5 103.9 1.5s77-.3 103.9-1.5c26.8-1.2 45.1-5.5 61.2-11.7 33.8-13.1 60.6-39.8 73.7-73.7 6.2-16 10.5-34.3 11.7-61.2 1.2-26.9 1.5-35.4 1.5-103.9s-.3-77-1.5-103.9c-1.2-26.8-5.5-45.1-11.7-61.2-6.3-16.8-16.2-32-29.1-44.6-12.6-12.8-27.8-22.7-44.6-29.1-16-6.2-34.3-10.5-61.2-11.7-27-1-35.6-1.3-104-1.3z"/><path d="M256 126.6c-71.4 0-129.4 57.9-129.4 129.4s58 129.4 129.4 129.4 129.4-58 129.4-129.4-58-129.4-129.4-129.4zm0 213.4c-46.4 0-84-37.6-84-84s37.6-84 84-84 84 37.6 84 84-37.6 84-84 84z"/><circle cx="390.5" cy="121.5" r="30.2"/></symbol><symbol viewBox="0 0 465.951 465.951" id="link-symbol" xmlns="http://www.w3.org/2000/svg"><path d="M441.962 284.364l-59.389-59.383c-15.984-15.985-35.396-23.982-58.238-23.982-23.223 0-43.013 8.375-59.385 25.125l-25.125-25.125c16.751-16.368 25.125-36.256 25.125-59.671 0-22.841-7.898-42.157-23.698-57.958l-58.815-59.097C166.639 8.095 147.225.003 124.195.003c-22.841 0-42.16 7.902-57.958 23.7l-41.97 41.683C8.088 81.188 0 100.504 0 123.343c0 22.841 7.996 42.258 23.982 58.245l59.385 59.383c15.99 15.988 35.404 23.982 58.245 23.982 23.219 0 43.015-8.374 59.383-25.126l25.125 25.126c-16.75 16.371-25.125 36.258-25.125 59.672 0 22.843 7.898 42.154 23.697 57.958l58.82 59.094c15.801 16.177 35.208 24.27 58.238 24.27 22.844 0 42.154-7.897 57.958-23.698l41.973-41.682c16.177-15.804 24.271-35.118 24.271-57.958-.005-22.838-7.999-42.25-23.99-58.245zM200.999 162.178a687.506 687.506 0 01-5.28-5.424c-2.948-3.046-4.995-5.092-6.136-6.14-1.143-1.047-2.952-2.474-5.426-4.286-2.478-1.809-4.902-3.044-7.28-3.711-2.38-.666-4.998-.998-7.854-.998-7.611 0-14.084 2.666-19.414 7.993-5.33 5.327-7.992 11.799-7.992 19.414 0 2.853.332 5.471.998 7.851.666 2.382 1.903 4.808 3.711 7.281 1.809 2.474 3.237 4.283 4.283 5.426 1.044 1.141 3.09 3.188 6.136 6.139 3.046 2.95 4.853 4.709 5.424 5.281-5.711 5.898-12.563 8.848-20.555 8.848-7.804 0-14.277-2.568-19.414-7.705l-59.39-59.386c-5.327-5.33-7.992-11.802-7.992-19.417 0-7.421 2.662-13.796 7.992-19.126l41.971-41.687c5.523-5.14 11.991-7.705 19.417-7.705 7.611 0 14.083 2.663 19.414 7.993l58.813 59.097c5.33 5.33 7.992 11.801 7.992 19.414.001 7.991-3.139 14.94-9.418 20.848zm202.148 199.554l-41.973 41.686c-5.332 4.945-11.8 7.423-19.418 7.423-7.809 0-14.27-2.566-19.41-7.707l-58.813-59.101c-5.331-5.332-7.99-11.8-7.99-19.41 0-7.994 3.138-14.941 9.421-20.841.575.567 2.334 2.381 5.284 5.42 2.95 3.046 4.996 5.093 6.14 6.14 1.143 1.051 2.949 2.478 5.42 4.288 2.478 1.811 4.9 3.049 7.282 3.713 2.382.667 4.997.999 7.851.999 7.618 0 14.086-2.665 19.418-7.994 5.324-5.328 7.994-11.8 7.994-19.41 0-2.854-.339-5.472-1-7.851-.67-2.382-1.902-4.809-3.72-7.282-1.811-2.471-3.23-4.284-4.281-5.428-1.047-1.136-3.094-3.183-6.139-6.14a1189.395 1189.395 0 01-5.428-5.276c5.715-6.092 12.566-9.138 20.554-9.138 7.617 0 14.085 2.663 19.41 7.994l59.388 59.382c5.332 5.332 7.995 11.807 7.995 19.417 0 7.416-2.663 13.799-7.985 19.116z"/></symbol><symbol viewBox="0 0 578.1 578.1" id="phone-receiver" xmlns="http://www.w3.org/2000/svg"><path d="M577.8 456.1c1.2 9.4-1.6 17.5-8.6 24.5l-81.4 80.8c-3.7 4.1-8.5 7.6-14.4 10.4-5.9 2.9-11.7 4.7-17.4 5.5-.4 0-1.6.1-3.7.3-2 .2-4.7.3-8 .3-7.8 0-20.3-1.3-37.6-4s-38.6-9.2-63.6-19.6c-25.1-10.4-53.6-26-85.4-46.8-31.8-20.8-65.7-49.4-101.6-85.7-28.6-28.2-52.2-55.1-71-80.8-18.8-25.7-33.9-49.5-45.3-71.3-11.4-21.8-20-41.6-25.7-59.4s-9.6-33-11.6-45.9-2.9-22.9-2.4-30.3c.4-7.3.6-11.4.6-12.2.8-5.7 2.7-11.5 5.5-17.4s6.3-10.7 10.4-14.4L98 8.8c5.7-5.7 12.2-8.6 19.6-8.6 5.3 0 10 1.5 14.1 4.6s7.5 6.8 10.4 11.3l65.5 124.2c3.7 6.5 4.7 13.7 3.1 21.4s-5.1 14.3-10.4 19.6l-30 30c-.8.8-1.5 2.1-2.1 4s-.9 3.4-.9 4.6c1.6 8.6 5.3 18.4 11 29.4 4.9 9.8 12.4 21.7 22.6 35.8s24.7 30.3 43.5 48.7c18.4 18.8 34.7 33.4 49 43.8 14.3 10.4 26.2 18.1 35.8 22.9s16.9 7.9 22 8.9l7.6 1.5c.8 0 2.1-.3 4-.9 1.8-.6 3.2-1.3 4-2.1l34.9-35.5c7.3-6.5 15.9-9.8 25.7-9.8 6.9 0 12.4 1.2 16.5 3.7h.6l118.1 69.8c8.5 5.1 13.6 11.9 15.2 20z"/></symbol><symbol viewBox="0 0 24 24" id="telegram" xmlns="http://www.w3.org/2000/svg"><path d="M9.417 15.181l-.397 5.584c.568 0 .814-.244 1.109-.537l2.663-2.545 5.518 4.041c1.012.564 1.725.267 1.998-.931L23.93 3.821l.001-.001c.321-1.496-.541-2.081-1.527-1.714l-21.29 8.151c-1.453.564-1.431 1.374-.247 1.741l5.443 1.693L18.953 5.78c.595-.394 1.136-.176.691.218z"/></symbol><symbol class="isvg-inline--fa ifa-twitter ifa-w-16" viewBox="0 0 512 512" id="twitter" xmlns="http://www.w3.org/2000/svg"><path d="M459.37 151.716c.325 4.548.325 9.097.325 13.645 0 138.72-105.583 298.558-298.558 298.558-59.452 0-114.68-17.219-161.137-47.106 8.447.974 16.568 1.299 25.34 1.299 49.055 0 94.213-16.568 130.274-44.832-46.132-.975-84.792-31.188-98.112-72.772 6.498.974 12.995 1.624 19.818 1.624 9.421 0 18.843-1.3 27.614-3.573-48.081-9.747-84.143-51.98-84.143-102.985v-1.299c13.969 7.797 30.214 12.67 47.431 13.319-28.264-18.843-46.781-51.005-46.781-87.391 0-19.492 5.197-37.36 14.294-52.954 51.655 63.675 129.3 105.258 216.365 109.807-1.624-7.797-2.599-15.918-2.599-24.04 0-57.828 46.782-104.934 104.934-104.934 30.213 0 57.502 12.67 76.67 33.137 23.715-4.548 46.456-13.32 66.599-25.34-7.798 24.366-24.366 44.833-46.132 57.827 21.117-2.273 41.584-8.122 60.426-16.243-14.292 20.791-32.161 39.308-52.628 54.253z"/></symbol><symbol viewBox="0 0 16 16" id="user" xmlns="http://www.w3.org/2000/svg"><path d="M8 0a4.165 4.165 0 00-4.153 4.154A4.165 4.165 0 008 8.308a4.165 4.165 0 004.154-4.154A4.165 4.165 0 008.001 0zm7.13 11.628a3.878 3.878 0 00-.417-.762c-.834-1.233-2.122-2.05-3.574-2.25a.765.765 0 00-.526.128 4.37 4.37 0 01-2.612.852 4.37 4.37 0 01-2.612-.852.68.68 0 00-.526-.127 5.126 5.126 0 00-3.574 2.25 4.466 4.466 0 00-.417.761.386.386 0 00.018.345c.145.254.326.508.49.725.254.345.526.653.834.944.254.254.544.49.835.725A8.219 8.219 0 007.983 16a8.22 8.22 0 004.934-1.633c.29-.217.58-.471.835-.725.29-.29.58-.599.834-.944.181-.235.345-.471.49-.725.09-.109.109-.236.054-.345z"/></symbol><symbol viewBox="0 0 548.4 548.4" id="vk" xmlns="http://www.w3.org/2000/svg"><path d="M545.5 400.3c-.7-1.4-1.3-2.6-1.9-3.6-9.5-17.1-27.7-38.2-54.5-63.1l-.6-.6-.3-.3-.3-.3h-.3c-12.2-11.6-19.9-19.4-23.1-23.4-5.9-7.6-7.2-15.3-4-23.1 2.3-5.9 10.9-18.4 25.7-37.4 7.8-10.1 14-18.2 18.6-24.3 32.9-43.8 47.2-71.8 42.8-83.9l-1.7-2.8c-1.1-1.7-4.1-3.3-8.8-4.7-4.8-1.4-10.9-1.7-18.3-.7l-82.2.6c-1.3-.5-3.2-.4-5.7.1-2.5.6-3.7.9-3.7.9l-1.4.7-1.1.9c-1 .6-2 1.6-3.1 3s-2.1 3.1-2.8 5c-9 23-19.1 44.4-30.6 64.2-7 11.8-13.5 22-19.4 30.7-5.9 8.7-10.8 15-14.8 19.1-4 4.1-7.6 7.4-10.9 9.8-3.2 2.5-5.7 3.5-7.4 3.1-1.7-.4-3.3-.8-4.9-1.1-2.7-1.7-4.8-4-6.4-7-1.6-3-2.7-6.7-3.3-11.1-.6-4.5-.9-8.3-1-11.6-.1-3.2 0-7.8.1-13.7.2-5.9.3-9.9.3-12 0-7.2.1-15.1.4-23.6.3-8.5.5-15.2.7-20.1.2-4.9.3-10.2.3-15.7s-.3-9.8-1-13c-.7-3.1-1.7-6.2-3-9.1-1.3-2.9-3.3-5.2-5.9-6.9-2.6-1.6-5.8-2.9-9.6-3.9-10.1-2.3-22.9-3.5-38.5-3.7-35.4-.4-58.1 1.9-68.2 6.9-4 2.1-7.6 4.9-10.8 8.6-3.4 4.2-3.9 6.5-1.4 6.9 11.4 1.7 19.5 5.8 24.3 12.3l1.7 3.4c1.3 2.5 2.7 6.9 4 13.1 1.3 6.3 2.2 13.2 2.6 20.8.9 13.9.9 25.8 0 35.7-1 9.9-1.9 17.6-2.7 23.1-.9 5.5-2.1 10-3.9 13.4-1.7 3.4-2.9 5.5-3.4 6.3-.6.8-1 1.2-1.4 1.4-2.5.9-5 1.4-7.7 1.4s-5.9-1.3-9.7-4c-3.8-2.7-7.8-6.3-11.8-11-4.1-4.7-8.7-11.2-13.9-19.6-5.1-8.4-10.5-18.3-16-29.7l-4.6-8.3c-2.9-5.3-6.8-13.1-11.7-23.3-5-10.2-9.3-20-13.1-29.6-1.5-4-3.8-7-6.9-9.1l-1.4-.9c-.9-.8-2.5-1.6-4.6-2.4-2.1-.9-4.3-1.5-6.6-1.9l-78.2.6c-8 0-13.4 1.8-16.3 5.4l-1.1 1.7c-.6 1-.9 2.5-.9 4.6 0 2.1.6 4.7 1.7 7.7 11.4 26.8 23.8 52.7 37.3 77.7s25.1 45 35 60.2c9.9 15.2 20 29.6 30.3 43.1s17.1 22.2 20.4 26c3.3 3.8 6 6.7 7.9 8.6l7.1 6.9c4.6 4.6 11.3 10 20.1 16.4 8.9 6.4 18.7 12.7 29.4 18.9 10.8 6.2 23.3 11.2 37.5 15.1 14.3 3.9 28.2 5.5 41.7 4.7h32.8c6.7-.6 11.7-2.7 15.1-6.3l1.1-1.4c.8-1.1 1.5-2.9 2.1-5.3.7-2.4 1-5 1-7.9-.2-8.2.4-15.6 1.9-22.1 1.4-6.6 3-11.5 4.9-14.8 1.8-3.3 3.9-6.1 6.1-8.4 2.3-2.3 3.9-3.7 4.9-4.1.9-.5 1.7-.8 2.3-1 4.6-1.5 9.9 0 16.1 4.4 6.2 4.5 12 10 17.4 16.6 5.4 6.6 11.9 13.9 19.6 22.1 7.6 8.2 14.3 14.3 20 18.3l5.7 3.4c3.8 2.3 8.8 4.4 14.9 6.3 6.1 1.9 11.4 2.4 16 1.4l73.1-1.1c7.2 0 12.9-1.2 16.8-3.6 4-2.4 6.4-5 7.1-7.9.8-2.9.8-6.1.1-9.7-.8-3.4-1.5-6-2.1-7.4z"/></symbol></svg>