<svg xmlns="http://www.w3.org/2000/svg" viewBox="0 0 448.6 468.7"><defs><style>.cls-1{fill:#db1e32;}</style></defs><title>ways-1</title><g id="Слой_2" data-name="Слой 2"><g id="Слой_1-2" data-name="Слой 1"><path class="cls-1" d="M11.1,468.7H8.9a8.81,8.81,0,0,1-8.8-8.8V9A8.81,8.81,0,0,1,8.9.2h2.2A8.81,8.81,0,0,1,19.9,9V459.9A8.81,8.81,0,0,1,11.1,468.7Z"/><path class="cls-1" d="M319.2,468.7H317a8.81,8.81,0,0,1-8.8-8.8V9A8.81,8.81,0,0,1,317,.2h2.2A8.81,8.81,0,0,1,328,9V459.9A8.75,8.75,0,0,1,319.2,468.7Z"/><path class="cls-1" d="M439.8,468.7h-2.2a8.81,8.81,0,0,1-8.8-8.8V9A8.81,8.81,0,0,1,437.6.2h2.2A8.81,8.81,0,0,1,448.6,9V459.9A8.81,8.81,0,0,1,439.8,468.7Z"/><path class="cls-1" d="M0,11V8.8A8.81,8.81,0,0,1,8.8,0H439.7a8.81,8.81,0,0,1,8.8,8.8V11a8.81,8.81,0,0,1-8.8,8.8H8.8A8.81,8.81,0,0,1,0,11Z"/><path class="cls-1" d="M0,459.9v-2.2a8.81,8.81,0,0,1,8.8-8.8H439.7a8.81,8.81,0,0,1,8.8,8.8v2.2a8.81,8.81,0,0,1-8.8,8.8H8.8A8.81,8.81,0,0,1,0,459.9Z"/><path class="cls-1" d="M152.9,274.4a37.93,37.93,0,0,1-.2,3.8,9.6,9.6,0,0,1-.7,2.5,2.8,2.8,0,0,1-1,1.3,2,2,0,0,1-1.3.4H92a1.92,1.92,0,0,1-1.2-.4,3.45,3.45,0,0,1-1-1.3,10.93,10.93,0,0,1-.7-2.5,21.78,21.78,0,0,1-.2-3.8,38.44,38.44,0,0,1,.2-3.9,10.15,10.15,0,0,1,.6-2.5,3.88,3.88,0,0,1,1-1.4,2,2,0,0,1,1.3-.4h19.5V198.1l-16.8,9.3a10.15,10.15,0,0,1-3,1.1,2.08,2.08,0,0,1-1.9-.5,3.8,3.8,0,0,1-.9-2.4,31.15,31.15,0,0,1-.2-4.8,29.19,29.19,0,0,1,.1-3.2,11.21,11.21,0,0,1,.4-2.1,3.77,3.77,0,0,1,.9-1.5,9.83,9.83,0,0,1,1.5-1.2l22.5-14.5a3.13,3.13,0,0,1,1-.5,15.69,15.69,0,0,1,1.6-.3c.7-.1,1.5-.1,2.5-.2s2.4,0,4.1,0c2,0,3.7,0,5,.1a15.47,15.47,0,0,1,2.9.4c.6.2,1.1.4,1.3.8a2.13,2.13,0,0,1,.3,1.2v86.4h17.1a2,2,0,0,1,1.3.4,4,4,0,0,1,1.1,1.4,7.63,7.63,0,0,1,.6,2.5C152.8,271.5,152.9,272.8,152.9,274.4Z"/><path class="cls-1" d="M244.2,266.6c0,1.3,0,2.5-.1,3.4a13.27,13.27,0,0,1-.4,2.4,10.72,10.72,0,0,1-.6,1.7,12.9,12.9,0,0,1-1.3,1.7,14.36,14.36,0,0,1-3.4,2.4,40.57,40.57,0,0,1-6.2,2.8,56.81,56.81,0,0,1-8.4,2.2,58.53,58.53,0,0,1-29.6-2.4,37.52,37.52,0,0,1-14.7-9.9,46,46,0,0,1-9.3-16.4c-2.2-6.5-3.2-14.2-3.2-23a72,72,0,0,1,3.6-23.7,50.79,50.79,0,0,1,9.9-17.4,43.23,43.23,0,0,1,15.3-10.7,52.33,52.33,0,0,1,19.7-3.6,46.09,46.09,0,0,1,8.4.7,51.31,51.31,0,0,1,7.5,1.9,39.8,39.8,0,0,1,6.2,2.7,18.41,18.41,0,0,1,3.8,2.6,10.07,10.07,0,0,1,1.5,1.8,4.73,4.73,0,0,1,.6,1.9c.1.8.3,1.6.4,2.7s.1,2.3.1,3.8-.1,3-.2,4.1a9,9,0,0,1-.6,2.7,3.56,3.56,0,0,1-1,1.5,2.11,2.11,0,0,1-1.3.5,6.19,6.19,0,0,1-3.1-1.4,56.51,56.51,0,0,0-4.8-3.2,41.72,41.72,0,0,0-7-3.2,31,31,0,0,0-9.7-1.4,23.57,23.57,0,0,0-11.1,2.5,24,24,0,0,0-8.3,7.3,35.15,35.15,0,0,0-5.2,11.4,66.27,66.27,0,0,0,.1,31.1,31.94,31.94,0,0,0,5.4,11.1,21.55,21.55,0,0,0,8.5,6.5,28.31,28.31,0,0,0,11.2,2.1,31.88,31.88,0,0,0,9.8-1.3,43.32,43.32,0,0,0,7.1-3,42.79,42.79,0,0,0,4.8-2.9,5.61,5.61,0,0,1,3-1.3,2.5,2.5,0,0,1,1.3.3,2.23,2.23,0,0,1,.8,1.3,11.85,11.85,0,0,1,.5,2.7C244.1,263.2,244.2,264.7,244.2,266.6Z"/></g></g></svg>