<?xml version="1.0" encoding="utf-8"?>
<!-- Generator: Adobe Illustrator 23.0.2, SVG Export Plug-In . SVG Version: 6.00 Build 0)  -->
<svg version="1.1" id="Layer" xmlns="http://www.w3.org/2000/svg" xmlns:xlink="http://www.w3.org/1999/xlink" x="0px" y="0px"
	 viewBox="0 0 512 512" style="enable-background:new 0 0 512 512;" xml:space="preserve">
<path d="M64,256c0,8.8,7.2,16,16,16h319.2L277,388.4c-6.4,6.1-6.7,16.2-0.6,22.6c6.1,6.4,16.2,6.6,22.6,0.6l139.6-133
	c6-6,9.4-14.1,9.4-22.6c0-8.5-3.3-16.6-9.7-22.9L299,100.4c-6.4-6.1-16.5-5.8-22.6,0.6c-6.1,6.4-5.8,16.5,0.6,22.6L399.7,240H80
	C71.2,240,64,247.2,64,256L64,256z"/>
</svg>
