<?xml version="1.0" encoding="utf-8"?>
<!-- Generator: Adobe Illustrator 23.0.2, SVG Export Plug-In . SVG Version: 6.00 Build 0)  -->
<svg version="1.1" id="Capa_1" xmlns="http://www.w3.org/2000/svg" xmlns:xlink="http://www.w3.org/1999/xlink" x="0px" y="0px"
	 viewBox="0 0 60 60" style="enable-background:new 0 0 60 60;" xml:space="preserve">
<path d="M53.7,35.3L44.2,20l9.7-15.5c0.2-0.3,0.2-0.7,0-1C53.7,3.2,53.4,3,53,3H8V1c0-0.6-0.4-1-1-1S6,0.4,6,1v3v29v3v23
	c0,0.6,0.4,1,1,1s1-0.4,1-1V37h45c0,0,0,0,0,0c0.6,0,1-0.4,1-1C54,35.7,53.9,35.5,53.7,35.3z"/>
</svg>
