<svg width="16" height="16" viewBox="0 0 16 16" fill="none" xmlns="http://www.w3.org/2000/svg">
<path d="M8.00087 0C5.71515 0 3.84668 1.86847 3.84668 4.1542C3.84668 6.43993 5.71515 8.3084 8.00087 8.3084C10.2866 8.3084 12.1551 6.43993 12.1551 4.1542C12.1551 1.86847 10.2866 0 8.00087 0Z" fill="#DB1E32"/>
<path d="M15.1302 11.6281C15.0213 11.356 14.8762 11.102 14.713 10.8662C13.8785 9.63263 12.5905 8.81631 11.1393 8.61676C10.9579 8.59863 10.7584 8.63488 10.6132 8.74374C9.85131 9.3061 8.94429 9.59634 8.00096 9.59634C7.05763 9.59634 6.15061 9.3061 5.3887 8.74374C5.24356 8.63488 5.04402 8.58047 4.86263 8.61676C3.41138 8.81631 2.10527 9.63263 1.28895 10.8662C1.12568 11.102 0.980543 11.3742 0.871724 11.6281C0.817314 11.737 0.835439 11.864 0.889849 11.9728C1.03499 12.2268 1.21638 12.4808 1.37964 12.6984C1.6336 13.0431 1.90572 13.3515 2.21412 13.6417C2.46808 13.8957 2.75832 14.1315 3.0486 14.3674C4.48169 15.4377 6.20506 16 7.98284 16C9.76061 16 11.484 15.4376 12.9171 14.3674C13.2073 14.1497 13.4976 13.8957 13.7516 13.6417C14.0418 13.3515 14.332 13.0431 14.586 12.6984C14.7674 12.4626 14.9307 12.2268 15.0758 11.9728C15.1665 11.864 15.1846 11.7369 15.1302 11.6281Z" fill="#DB1E32"/>
</svg>
